# xmcd CD database file
#
# Track frame offsets:
#	150
#	11790
#	25663
#	36430
#	48109
#	59250
#	70001
#	81664
#	91895
#	103230
#	112826
#	124737
#	137465
#	147932
#	157940
#	168433
#	181096
#	192472
#	202878
#	213682
#	224051
#	233896
#	245240
#	256417
#
# Disc length: 3567 seconds
#
# Revision: 0
# Processed by: cddbd v1.5.1PL2 Copyright (c) Steve Scherf et al.
# Submitted via: CDex 1.51
#
DISCID=5e0ded18
DTITLE=Patsy Cline - 24 Country Classics
DYEAR=2005
DGENRE=Country
TTITLE0=Walkin' After Midnight
TTITLE1=A Church A Courtroom And Then Goodbye
TTITLE2=Honky Tonk Merry Go Round
TTITLE3=I've Loved And Lost Again
TTITLE4=I Can't Forget
TTITLE5=Stop Look And Listen
TTITLE6=In Care Of The Blues
TTITLE7=Three Cigarettes In An Ashtray
TTITLE8=Just Out Of Reach
TTITLE9=I'm Moving Along
TTITLE10=If I Could Only Stay Asleep
TTITLE11=Yes I Understand
TTITLE12=He Will Do For You
TTITLE13=Turn The Cards Slowly
TTITLE14=I Love You Honey
TTITLE15=Fingerprints
TTITLE16=Dear God I Go To Church On Sunday
TTITLE17=Pick Me Up On Your Way Down
TTITLE18=I Can See An Angel
TTITLE19=How Can I Face Tomorrow
TTITLE20=I'm Blue Again
TTITLE21=Cry Not For Me
TTITLE22=A Stranger In My Arms
TTITLE23=Hidin' Out
EXTD=YEAR: 2005
EXTT0=
EXTT1=
EXTT2=
EXTT3=
EXTT4=
EXTT5=
EXTT6=
EXTT7=
EXTT8=
EXTT9=
EXTT10=
EXTT11=
EXTT12=
EXTT13=
EXTT14=
EXTT15=
EXTT16=
EXTT17=
EXTT18=
EXTT19=
EXTT20=
EXTT21=
EXTT22=
EXTT23=
PLAYORDER=
